<svg width="41" height="41" viewBox="0 0 41 41" fill="none" xmlns="http://www.w3.org/2000/svg">
<path d="M2.87508 40.9167H38.1251C38.6445 40.9167 39.1426 40.7016 39.5098 40.3187C39.8771 39.9358 40.0834 39.4165 40.0834 38.875V30.7083C40.0834 30.1668 39.8771 29.6475 39.5098 29.2647C39.1426 28.8818 38.6445 28.6667 38.1251 28.6667H36.1667V18.4583H38.1251C38.6445 18.4583 39.1426 18.2432 39.5098 17.8603C39.8771 17.4775 40.0834 16.9581 40.0834 16.4167V10.2917C40.0835 9.89664 39.9736 9.51008 39.7671 9.17885C39.5606 8.84763 39.2664 8.58596 38.9202 8.42558L21.2952 0.258915C21.0448 0.142977 20.774 0.0830727 20.5001 0.0830727C20.2262 0.0830727 19.9553 0.142977 19.705 0.258915L2.08 8.42558C1.73373 8.58596 1.43952 8.84763 1.23305 9.17885C1.02657 9.51008 0.9167 9.89664 0.916748 10.2917V16.4167C0.916748 16.9581 1.12307 17.4775 1.49033 17.8603C1.85759 18.2432 2.3557 18.4583 2.87508 18.4583H4.83341V28.6667H2.87508C2.3557 28.6667 1.85759 28.8818 1.49033 29.2647C1.12307 29.6475 0.916748 30.1668 0.916748 30.7083V38.875C0.916748 39.4165 1.12307 39.9358 1.49033 40.3187C1.85759 40.7016 2.3557 40.9167 2.87508 40.9167ZM4.83341 11.6187L20.5001 4.35858L36.1667 11.6187V14.375H4.83341V11.6187ZM32.2501 18.4583V28.6667H27.0272V18.4583H32.2501ZM23.1105 18.4583V28.6667H17.8896V18.4583H23.1105ZM13.973 18.4583V28.6667H8.75008V18.4583H13.973ZM4.83341 32.75H36.1667V36.8333H4.83341V32.75ZM24.4167 10.2917C24.4167 10.8331 24.2104 11.3525 23.8432 11.7353C23.4759 12.1182 22.9778 12.3333 22.4584 12.3333H18.5417C18.0224 12.3333 17.5243 12.1182 17.157 11.7353C16.7897 11.3525 16.5834 10.8331 16.5834 10.2917C16.5834 9.75018 16.7897 9.23088 17.157 8.84799C17.5243 8.4651 18.0224 8.25 18.5417 8.25H22.4584C22.9778 8.25 23.4759 8.4651 23.8432 8.84799C24.2104 9.23088 24.4167 9.75018 24.4167 10.2917Z" fill="white" fill-opacity="0.87"/>
</svg>
