<svg width="44" height="36" viewBox="0 0 44 36" fill="none" xmlns="http://www.w3.org/2000/svg">
<g filter="url(#filter0_i_107_490)">
<path d="M42 8H36V2C36 1.46957 35.7893 0.960859 35.4142 0.585786C35.0391 0.210714 34.5304 0 34 0H2C1.46957 0 0.960859 0.210714 0.585786 0.585786C0.210714 0.960859 0 1.46957 0 2V26C0 26.5304 0.210714 27.0391 0.585786 27.4142C0.960859 27.7893 1.46957 28 2 28H8V34C8 34.5304 8.21071 35.0391 8.58579 35.4142C8.96086 35.7893 9.46957 36 10 36H42C42.5304 36 43.0391 35.7893 43.4142 35.4142C43.7893 35.0391 44 34.5304 44 34V10C44 9.46957 43.7893 8.96086 43.4142 8.58579C43.0391 8.21071 42.5304 8 42 8ZM4 24V4H32V24H4ZM40 32H12V28H34C34.5304 28 35.0391 27.7893 35.4142 27.4142C35.7893 27.0391 36 26.5304 36 26V12H40V32ZM22 14C22 14.7911 21.7654 15.5645 21.3259 16.2223C20.8864 16.8801 20.2616 17.3928 19.5307 17.6955C18.7998 17.9983 17.9956 18.0775 17.2196 17.9231C16.4437 17.7688 15.731 17.3878 15.1716 16.8284C14.6122 16.269 14.2312 15.5563 14.0769 14.7804C13.9225 14.0044 14.0017 13.2002 14.3045 12.4693C14.6072 11.7384 15.1199 11.1136 15.7777 10.6741C16.4355 10.2346 17.2089 10 18 10C19.0609 10 20.0783 10.4214 20.8284 11.1716C21.5786 11.9217 22 12.9391 22 14ZM12 14C12 14.5304 11.7893 15.0391 11.4142 15.4142C11.0391 15.7893 10.5304 16 10 16H8C7.46957 16 6.96086 15.7893 6.58579 15.4142C6.21071 15.0391 6 14.5304 6 14C6 13.4696 6.21071 12.9609 6.58579 12.5858C6.96086 12.2107 7.46957 12 8 12H10C10.5304 12 11.0391 12.2107 11.4142 12.5858C11.7893 12.9609 12 13.4696 12 14ZM30 14C30 14.5304 29.7893 15.0391 29.4142 15.4142C29.0391 15.7893 28.5304 16 28 16H26C25.4696 16 24.9609 15.7893 24.5858 15.4142C24.2107 15.0391 24 14.5304 24 14C24 13.4696 24.2107 12.9609 24.5858 12.5858C24.9609 12.2107 25.4696 12 26 12H28C28.5304 12 29.0391 12.2107 29.4142 12.5858C29.7893 12.9609 30 13.4696 30 14Z" fill="white"/>
</g>
<defs>
<filter id="filter0_i_107_490" x="0" y="0" width="44.5" height="38" filterUnits="userSpaceOnUse" color-interpolation-filters="sRGB">
<feFlood flood-opacity="0" result="BackgroundImageFix"/>
<feBlend mode="normal" in="SourceGraphic" in2="BackgroundImageFix" result="shape"/>
<feColorMatrix in="SourceAlpha" type="matrix" values="0 0 0 0 0 0 0 0 0 0 0 0 0 0 0 0 0 0 127 0" result="hardAlpha"/>
<feOffset dx="0.5" dy="2"/>
<feGaussianBlur stdDeviation="2"/>
<feComposite in2="hardAlpha" operator="arithmetic" k2="-1" k3="1"/>
<feColorMatrix type="matrix" values="0 0 0 0 0.0588235 0 0 0 0 0.054902 0 0 0 0 0.141176 0 0 0 1 0"/>
<feBlend mode="normal" in2="shape" result="effect1_innerShadow_107_490"/>
</filter>
</defs>
</svg>
