<svg width="40" height="32" viewBox="0 0 40 32" fill="none" xmlns="http://www.w3.org/2000/svg">
<path d="M34 0.25H6C4.60761 0.25 3.27226 0.803124 2.28769 1.78769C1.30312 2.77226 0.75 4.10761 0.75 5.5V26.5C0.75 27.8924 1.30312 29.2277 2.28769 30.2123C3.27226 31.1969 4.60761 31.75 6 31.75H34C35.3924 31.75 36.7277 31.1969 37.7123 30.2123C38.6969 29.2277 39.25 27.8924 39.25 26.5V5.5C39.25 4.10761 38.6969 2.77226 37.7123 1.78769C36.7277 0.803124 35.3924 0.25 34 0.25ZM35.75 26.5C35.75 26.9641 35.5656 27.4092 35.2374 27.7374C34.9092 28.0656 34.4641 28.25 34 28.25H6C5.53587 28.25 5.09075 28.0656 4.76256 27.7374C4.43437 27.4092 4.25 26.9641 4.25 26.5V5.5C4.25 5.03587 4.43437 4.59075 4.76256 4.26256C5.09075 3.93437 5.53587 3.75 6 3.75H34C34.4641 3.75 34.9092 3.93437 35.2374 4.26256C35.5656 4.59075 35.75 5.03587 35.75 5.5V26.5ZM32.25 23C32.25 23.4641 32.0656 23.9092 31.7374 24.2374C31.4092 24.5656 30.9641 24.75 30.5 24.75H25.25C24.7859 24.75 24.3408 24.5656 24.0126 24.2374C23.6844 23.9092 23.5 23.4641 23.5 23C23.5 22.5359 23.6844 22.0908 24.0126 21.7626C24.3408 21.4344 24.7859 21.25 25.25 21.25H30.5C30.9641 21.25 31.4092 21.4344 31.7374 21.7626C32.0656 22.0908 32.25 22.5359 32.25 23ZM14.75 10.75C14.75 11.4422 14.5447 12.1189 14.1601 12.6945C13.7756 13.2701 13.2289 13.7187 12.5894 13.9836C11.9499 14.2485 11.2461 14.3178 10.5672 14.1827C9.88825 14.0477 9.26461 13.7144 8.77513 13.2249C8.28564 12.7354 7.9523 12.1117 7.81725 11.4328C7.6822 10.7539 7.75151 10.0501 8.01642 9.41061C8.28133 8.77107 8.72993 8.22444 9.3055 7.83986C9.88108 7.45527 10.5578 7.25 11.25 7.25C12.1783 7.25 13.0685 7.61875 13.7249 8.27513C14.3813 8.9315 14.75 9.82174 14.75 10.75Z" fill="white"/>
</svg>
