<svg width="39" height="31" viewBox="0 0 39 31" fill="none" xmlns="http://www.w3.org/2000/svg">
<path d="M5.83325 30.875H33.1666C34.5258 30.875 35.8294 30.335 36.7905 29.3739C37.7516 28.4128 38.2916 27.1092 38.2916 25.75V5.25C38.2916 3.89077 37.7516 2.5872 36.7905 1.62608C35.8294 0.664954 34.5258 0.125 33.1666 0.125H5.83325C4.47402 0.125 3.17045 0.664954 2.20933 1.62608C1.24821 2.5872 0.708252 3.89077 0.708252 5.25V25.75C0.708252 27.1092 1.24821 28.4128 2.20933 29.3739C3.17045 30.335 4.47402 30.875 5.83325 30.875ZM4.12492 5.25C4.12492 4.79692 4.3049 4.3624 4.62528 4.04203C4.94565 3.72165 5.38017 3.54167 5.83325 3.54167H33.1666C33.6197 3.54167 34.0542 3.72165 34.3746 4.04203C34.6949 4.3624 34.8749 4.79692 34.8749 5.25V25.75C34.8749 26.2031 34.6949 26.6376 34.3746 26.958C34.0542 27.2784 33.6197 27.4583 33.1666 27.4583H5.83325C5.38017 27.4583 4.94565 27.2784 4.62528 26.958C4.3049 26.6376 4.12492 26.2031 4.12492 25.75V5.25ZM7.54159 22.3333C7.54159 21.8803 7.72157 21.4457 8.04195 21.1254C8.36232 20.805 8.79684 20.625 9.24992 20.625H14.3749C14.828 20.625 15.2625 20.805 15.5829 21.1254C15.9033 21.4457 16.0833 21.8803 16.0833 22.3333C16.0833 22.7864 15.9033 23.2209 15.5829 23.5413C15.2625 23.8617 14.828 24.0417 14.3749 24.0417H9.24992C8.79684 24.0417 8.36232 23.8617 8.04195 23.5413C7.72157 23.2209 7.54159 22.7864 7.54159 22.3333ZM7.54159 17.2083C7.54159 16.7553 7.72157 16.3207 8.04195 16.0004C8.36232 15.68 8.79684 15.5 9.24992 15.5H19.4999C19.953 15.5 20.3875 15.68 20.7079 16.0004C21.0283 16.3207 21.2083 16.7553 21.2083 17.2083C21.2083 17.6614 21.0283 18.0959 20.7079 18.4163C20.3875 18.7367 19.953 18.9167 19.4999 18.9167H9.24992C8.79684 18.9167 8.36232 18.7367 8.04195 18.4163C7.72157 18.0959 7.54159 17.6614 7.54159 17.2083Z" fill="white"/>
</svg>
